# xmcd
#
# Track frame offsets: 
#        150
#        15298
#        28774
#        45211
#        61418
#        78339
#        92523
#        116010
#        136796
#        156162
#
# Disc length: 2406 seconds
#
# Revision: 0
# Processed by: cddbd v1.5.1PL0 Copyright (c) Steve Scherf et al.
# Submitted via: ExactAudioCopy v0.95a3
#
DISCID=6a09640a
DTITLE=George Gusman - Ready To Strike
DYEAR=2004
DGENRE=
TTITLE0=Rattlesnake Shake
TTITLE1=Ready To Strike
TTITLE2=Kiddie Boy
TTITLE3=I Saw An Angel
TTITLE4=Featherbedding Lover
TTITLE5=Crybaby
TTITLE6=Nobody's Fault
TTITLE7=Texas Women
TTITLE8=I Got A Woman
TTITLE9=Highway 61 Revisited
EXTD=
EXTT0=
EXTT1=
EXTT2=
EXTT3=
EXTT4=
EXTT5=
EXTT6=
EXTT7=
EXTT8=
EXTT9=
PLAYORDER=
